%TF.GenerationSoftware,KiCad,Pcbnew,5.1.6-c6e7f7d~87~ubuntu19.10.1*%
%TF.CreationDate,2021-11-13T16:17:34-08:00*%
%TF.ProjectId,snowflake2021,736e6f77-666c-4616-9b65-323032312e6b,rev?*%
%TF.SameCoordinates,Original*%
%TF.FileFunction,Profile,NP*%
%FSLAX46Y46*%
G04 Gerber Fmt 4.6, Leading zero omitted, Abs format (unit mm)*
G04 Created by KiCad (PCBNEW 5.1.6-c6e7f7d~87~ubuntu19.10.1) date 2021-11-13 16:17:34*
%MOMM*%
%LPD*%
G01*
G04 APERTURE LIST*
%TA.AperFunction,Profile*%
%ADD10C,0.050000*%
%TD*%
%TA.AperFunction,Profile*%
%ADD11C,0.075591*%
%TD*%
G04 APERTURE END LIST*
D10*
X146576051Y-30480000D02*
G75*
G03*
X146576051Y-30480000I-1796051J0D01*
G01*
D11*
%TO.C,svg2mod*%
X140789752Y-26670000D02*
X140789752Y-37443502D01*
X140789752Y-37443502D02*
X132695156Y-32763685D01*
X132695156Y-32763685D02*
X128585846Y-39857825D01*
X128585846Y-39857825D02*
X140789752Y-46927161D01*
X140789752Y-46927161D02*
X140789752Y-55027959D01*
X140789752Y-55027959D02*
X134038226Y-58925912D01*
X134038226Y-58925912D02*
X127081028Y-54906002D01*
X127081028Y-54906002D02*
X127056224Y-40742526D01*
X127056224Y-40742526D02*
X118854140Y-40759062D01*
X118854140Y-40759062D02*
X118870677Y-50168307D01*
X118870677Y-50168307D02*
X109511042Y-44760885D01*
X109511042Y-44760885D02*
X105410000Y-51863294D01*
X105410000Y-51863294D02*
X114744831Y-57254179D01*
X114744831Y-57254179D02*
X106641966Y-61917460D01*
X106641966Y-61917460D02*
X110726471Y-69028137D01*
X110726471Y-69028137D02*
X122955182Y-61991875D01*
X122955182Y-61991875D02*
X129965607Y-66040722D01*
X129965607Y-66040722D02*
X129965607Y-73832495D01*
X129965607Y-73832495D02*
X123004791Y-77850338D01*
X123004791Y-77850338D02*
X110726471Y-70789270D01*
X110726471Y-70789270D02*
X106641966Y-77899947D01*
X106641966Y-77899947D02*
X114794440Y-82596301D01*
X114794440Y-82596301D02*
X105434805Y-87995455D01*
X105434805Y-87995455D02*
X109535846Y-95097864D01*
X109535846Y-95097864D02*
X118870677Y-89706978D01*
X118870677Y-89706978D02*
X118854140Y-99058345D01*
X118854140Y-99058345D02*
X127056224Y-99074882D01*
X127056224Y-99074882D02*
X127081028Y-84969283D01*
X127081028Y-84969283D02*
X134094037Y-80923534D01*
X134094037Y-80923534D02*
X140839362Y-84817870D01*
X140839362Y-84817870D02*
X140839362Y-92857174D01*
X140839362Y-92857174D02*
X128585846Y-99959582D01*
X128585846Y-99959582D02*
X132695156Y-107053723D01*
X132695156Y-107053723D02*
X140839362Y-102340832D01*
X140839362Y-102340832D02*
X140839362Y-113147408D01*
X140839362Y-113147408D02*
X149041445Y-113147408D01*
X149041445Y-113147408D02*
X149041445Y-102373905D01*
X149041445Y-102373905D02*
X157136041Y-107053723D01*
X157136041Y-107053723D02*
X161245351Y-99959582D01*
X161245351Y-99959582D02*
X149041445Y-92890247D01*
X149041445Y-92890247D02*
X149041445Y-84788933D01*
X149041445Y-84788933D02*
X155792455Y-80891496D01*
X155792455Y-80891496D02*
X162750169Y-84911406D01*
X162750169Y-84911406D02*
X162774960Y-99074882D01*
X162774960Y-99074882D02*
X170977043Y-99058345D01*
X170977043Y-99058345D02*
X170960507Y-89649101D01*
X170960507Y-89649101D02*
X180320142Y-95056523D01*
X180320142Y-95056523D02*
X184421184Y-87954114D01*
X184421184Y-87954114D02*
X175086353Y-82563228D01*
X175086353Y-82563228D02*
X183189218Y-77899947D01*
X183189218Y-77899947D02*
X179104712Y-70789270D01*
X179104712Y-70789270D02*
X166884270Y-77825533D01*
X166884270Y-77825533D02*
X159865578Y-73774617D01*
X159865578Y-73774617D02*
X159865578Y-65983363D01*
X159865578Y-65983363D02*
X166834660Y-61958802D01*
X166834660Y-61958802D02*
X179104712Y-69028137D01*
X179104712Y-69028137D02*
X183189218Y-61917460D01*
X183189218Y-61917460D02*
X175036744Y-57221106D01*
X175036744Y-57221106D02*
X184396379Y-51821953D01*
X184396379Y-51821953D02*
X180295337Y-44719544D01*
X180295337Y-44719544D02*
X170960507Y-50110429D01*
X170960507Y-50110429D02*
X170977043Y-40759062D01*
X170977043Y-40759062D02*
X162774960Y-40742526D01*
X162774960Y-40742526D02*
X162750169Y-54848125D01*
X162750169Y-54848125D02*
X155737676Y-58893874D01*
X155737676Y-58893874D02*
X148991835Y-54999019D01*
X148991835Y-54999019D02*
X148991835Y-46960234D01*
X148991835Y-46960234D02*
X161245351Y-39857825D01*
X161245351Y-39857825D02*
X157136041Y-32763685D01*
X157136041Y-32763685D02*
X148991835Y-37476575D01*
X148991835Y-37476575D02*
X148991835Y-26670000D01*
X148991835Y-26670000D02*
X140789752Y-26670000D01*
%TD*%
M02*
