%TF.GenerationSoftware,KiCad,Pcbnew,5.1.6-c6e7f7d~87~ubuntu19.10.1*%
%TF.CreationDate,2021-11-13T16:17:34-08:00*%
%TF.ProjectId,snowflake2021,736e6f77-666c-4616-9b65-323032312e6b,rev?*%
%TF.SameCoordinates,Original*%
%TF.FileFunction,Legend,Top*%
%TF.FilePolarity,Positive*%
%FSLAX46Y46*%
G04 Gerber Fmt 4.6, Leading zero omitted, Abs format (unit mm)*
G04 Created by KiCad (PCBNEW 5.1.6-c6e7f7d~87~ubuntu19.10.1) date 2021-11-13 16:17:34*
%MOMM*%
%LPD*%
G01*
G04 APERTURE LIST*
%ADD10C,0.120000*%
%ADD11C,0.150000*%
G04 APERTURE END LIST*
D10*
%TO.C,SW1*%
X141677000Y-66620000D02*
X141707000Y-66620000D01*
X148137000Y-66620000D02*
X148107000Y-66620000D01*
X148137000Y-73080000D02*
X148107000Y-73080000D01*
X141707000Y-73080000D02*
X141677000Y-73080000D01*
X143607000Y-66620000D02*
X146207000Y-66620000D01*
X141677000Y-73080000D02*
X141677000Y-66620000D01*
X143607000Y-73080000D02*
X146207000Y-73080000D01*
X148137000Y-73080000D02*
X148137000Y-66620000D01*
%TO.C,R4*%
X153395000Y-70161564D02*
X153395000Y-68957436D01*
X155215000Y-70161564D02*
X155215000Y-68957436D01*
%TO.C,R3*%
X144166000Y-78137936D02*
X144166000Y-79342064D01*
X142346000Y-78137936D02*
X142346000Y-79342064D01*
%TO.C,R2*%
X145394000Y-79342064D02*
X145394000Y-78137936D01*
X147214000Y-79342064D02*
X147214000Y-78137936D01*
%TO.C,R1*%
X155935000Y-70234564D02*
X155935000Y-69030436D01*
X157755000Y-70234564D02*
X157755000Y-69030436D01*
%TO.C,D6*%
X116024971Y-52156908D02*
X114794971Y-54287330D01*
X114794971Y-54287330D02*
X116068029Y-55022330D01*
X116068029Y-55022330D02*
X117298029Y-52891908D01*
%TO.C,D5*%
X115281471Y-86034680D02*
X116511471Y-88165102D01*
X116511471Y-88165102D02*
X117784529Y-87430102D01*
X117784529Y-87430102D02*
X116554529Y-85299680D01*
%TO.C,D4*%
X144107000Y-103605000D02*
X146567000Y-103605000D01*
X146567000Y-103605000D02*
X146567000Y-102135000D01*
X146567000Y-102135000D02*
X144107000Y-102135000D01*
%TO.C,D3*%
X173845529Y-87420320D02*
X175075529Y-85289898D01*
X175075529Y-85289898D02*
X173802471Y-84554898D01*
X173802471Y-84554898D02*
X172572471Y-86685320D01*
%TO.C,D2*%
X174532529Y-53792320D02*
X173302529Y-51661898D01*
X173302529Y-51661898D02*
X172029471Y-52396898D01*
X172029471Y-52396898D02*
X173259471Y-54527320D01*
%TO.C,D1*%
X145693000Y-36095000D02*
X143233000Y-36095000D01*
X143233000Y-36095000D02*
X143233000Y-37565000D01*
X143233000Y-37565000D02*
X145693000Y-37565000D01*
%TO.C,C1*%
X134218000Y-70452064D02*
X134218000Y-69247936D01*
X136038000Y-70452064D02*
X136038000Y-69247936D01*
D11*
%TO.C,U1*%
X142157000Y-57902000D02*
X140407000Y-57902000D01*
X142157000Y-63207000D02*
X147657000Y-63207000D01*
X142157000Y-57697000D02*
X147657000Y-57697000D01*
X142157000Y-63207000D02*
X142157000Y-62907000D01*
X147657000Y-63207000D02*
X147657000Y-62907000D01*
X147657000Y-57697000D02*
X147657000Y-57997000D01*
X142157000Y-57697000D02*
X142157000Y-57902000D01*
D10*
%TO.C,R5*%
X136758000Y-70415564D02*
X136758000Y-69211436D01*
X138578000Y-70415564D02*
X138578000Y-69211436D01*
%TO.C,J1*%
X142434000Y-92770000D02*
X147634000Y-92770000D01*
X142434000Y-87630000D02*
X142434000Y-92770000D01*
X147634000Y-85030000D02*
X147634000Y-92770000D01*
X142434000Y-87630000D02*
X145034000Y-87630000D01*
X145034000Y-87630000D02*
X145034000Y-85030000D01*
X145034000Y-85030000D02*
X147634000Y-85030000D01*
X142434000Y-86360000D02*
X142434000Y-85030000D01*
X142434000Y-85030000D02*
X143764000Y-85030000D01*
%TD*%
M02*
