M48
; DRILL file {KiCad 5.1.6-c6e7f7d~87~ubuntu19.10.1} date Sat Nov 13 16:17:38 2021
; FORMAT={-:-/ absolute / inch / decimal}
; #@! TF.CreationDate,2021-11-13T16:17:38-08:00
; #@! TF.GenerationSoftware,Kicad,Pcbnew,5.1.6-c6e7f7d~87~ubuntu19.10.1
FMAT,2
INCH
T1C0.0157
T2C0.0394
T3C0.0512
%
G90
G05
T1
X4.625Y-3.325
X5.1Y-2.55
X5.2Y-3.025
X5.325Y-2.625
X5.375Y-2.5
X5.375Y-3.075
X5.375Y-3.075
X5.425Y-2.575
X5.45Y-3.175
X5.4633Y-2.95
X5.475Y-3.05
X5.5862Y-2.5138
X5.7Y-2.225
X5.7503Y-2.4753
X5.8151Y-3.2196
X5.935Y-2.54
X5.9461Y-2.4539
X6.0Y-2.95
X6.075Y-2.5
X6.2612Y-2.5362
X6.3107Y-2.3393
X6.325Y-2.5
X6.8Y-3.325
T2
X5.66Y-3.4
X5.66Y-3.5
X5.66Y-3.6
X5.76Y-3.4
X5.76Y-3.5
X5.76Y-3.6
T3
X5.2Y-2.75
X5.9874Y-2.75
T0
M30
