%TF.GenerationSoftware,KiCad,Pcbnew,5.1.6-c6e7f7d~87~ubuntu19.10.1*%
%TF.CreationDate,2021-11-13T00:37:31-08:00*%
%TF.ProjectId,snowflake2021,736e6f77-666c-4616-9b65-323032312e6b,rev?*%
%TF.SameCoordinates,Original*%
%TF.FileFunction,Legend,Top*%
%TF.FilePolarity,Positive*%
%FSLAX46Y46*%
G04 Gerber Fmt 4.6, Leading zero omitted, Abs format (unit mm)*
G04 Created by KiCad (PCBNEW 5.1.6-c6e7f7d~87~ubuntu19.10.1) date 2021-11-13 00:37:31*
%MOMM*%
%LPD*%
G01*
G04 APERTURE LIST*
%ADD10C,0.150000*%
%ADD11C,0.120000*%
G04 APERTURE END LIST*
D10*
%TO.C,U1*%
X139490000Y-60745000D02*
X139490000Y-60950000D01*
X144990000Y-60745000D02*
X144990000Y-61045000D01*
X144990000Y-66255000D02*
X144990000Y-65955000D01*
X139490000Y-66255000D02*
X139490000Y-65955000D01*
X139490000Y-60745000D02*
X144990000Y-60745000D01*
X139490000Y-66255000D02*
X144990000Y-66255000D01*
X139490000Y-60950000D02*
X137740000Y-60950000D01*
D11*
%TO.C,TP1*%
X152920000Y-64500000D02*
X152920000Y-62500000D01*
X155720000Y-64500000D02*
X152920000Y-64500000D01*
X155720000Y-62500000D02*
X155720000Y-64500000D01*
X152920000Y-62500000D02*
X155720000Y-62500000D01*
%TO.C,R1*%
X143125436Y-74020000D02*
X144329564Y-74020000D01*
X143125436Y-75840000D02*
X144329564Y-75840000D01*
%TO.C,J1*%
X142180000Y-53400000D02*
X147380000Y-53400000D01*
X142180000Y-48260000D02*
X142180000Y-53400000D01*
X147380000Y-45660000D02*
X147380000Y-53400000D01*
X142180000Y-48260000D02*
X144780000Y-48260000D01*
X144780000Y-48260000D02*
X144780000Y-45660000D01*
X144780000Y-45660000D02*
X147380000Y-45660000D01*
X142180000Y-46990000D02*
X142180000Y-45660000D01*
X142180000Y-45660000D02*
X143510000Y-45660000D01*
%TO.C,D12*%
X164377500Y-58555000D02*
X160317500Y-58555000D01*
X160317500Y-58555000D02*
X160317500Y-60825000D01*
X160317500Y-60825000D02*
X164377500Y-60825000D01*
%TO.C,D11*%
X164377500Y-78875000D02*
X160317500Y-78875000D01*
X160317500Y-78875000D02*
X160317500Y-81145000D01*
X160317500Y-81145000D02*
X164377500Y-81145000D01*
%TO.C,D10*%
X146597500Y-87765000D02*
X142537500Y-87765000D01*
X142537500Y-87765000D02*
X142537500Y-90035000D01*
X142537500Y-90035000D02*
X146597500Y-90035000D01*
%TO.C,D9*%
X130087500Y-78875000D02*
X126027500Y-78875000D01*
X126027500Y-78875000D02*
X126027500Y-81145000D01*
X126027500Y-81145000D02*
X130087500Y-81145000D01*
%TO.C,D8*%
X146380000Y-96655000D02*
X142320000Y-96655000D01*
X142320000Y-96655000D02*
X142320000Y-98925000D01*
X142320000Y-98925000D02*
X146380000Y-98925000D01*
%TO.C,D7*%
X146597500Y-31885000D02*
X142537500Y-31885000D01*
X142537500Y-31885000D02*
X142537500Y-34155000D01*
X142537500Y-34155000D02*
X146597500Y-34155000D01*
%TO.C,D6*%
X130087500Y-58555000D02*
X126027500Y-58555000D01*
X126027500Y-58555000D02*
X126027500Y-60825000D01*
X126027500Y-60825000D02*
X130087500Y-60825000D01*
%TO.C,D5*%
X122467500Y-54745000D02*
X118407500Y-54745000D01*
X118407500Y-54745000D02*
X118407500Y-57015000D01*
X118407500Y-57015000D02*
X122467500Y-57015000D01*
%TO.C,D4*%
X146380000Y-39505000D02*
X142320000Y-39505000D01*
X142320000Y-39505000D02*
X142320000Y-41775000D01*
X142320000Y-41775000D02*
X146380000Y-41775000D01*
%TO.C,D3*%
X122467500Y-82685000D02*
X118407500Y-82685000D01*
X118407500Y-82685000D02*
X118407500Y-84955000D01*
X118407500Y-84955000D02*
X122467500Y-84955000D01*
%TO.C,D2*%
X169457500Y-54745000D02*
X165397500Y-54745000D01*
X165397500Y-54745000D02*
X165397500Y-57015000D01*
X165397500Y-57015000D02*
X169457500Y-57015000D01*
%TO.C,D1*%
X169457500Y-82685000D02*
X165397500Y-82685000D01*
X165397500Y-82685000D02*
X165397500Y-84955000D01*
X165397500Y-84955000D02*
X169457500Y-84955000D01*
%TO.C,U1*%
D10*
X141478095Y-59272380D02*
X141478095Y-60081904D01*
X141525714Y-60177142D01*
X141573333Y-60224761D01*
X141668571Y-60272380D01*
X141859047Y-60272380D01*
X141954285Y-60224761D01*
X142001904Y-60177142D01*
X142049523Y-60081904D01*
X142049523Y-59272380D01*
X143049523Y-60272380D02*
X142478095Y-60272380D01*
X142763809Y-60272380D02*
X142763809Y-59272380D01*
X142668571Y-59415238D01*
X142573333Y-59510476D01*
X142478095Y-59558095D01*
%TO.C,TP1*%
X153058095Y-61152380D02*
X153629523Y-61152380D01*
X153343809Y-62152380D02*
X153343809Y-61152380D01*
X153962857Y-62152380D02*
X153962857Y-61152380D01*
X154343809Y-61152380D01*
X154439047Y-61200000D01*
X154486666Y-61247619D01*
X154534285Y-61342857D01*
X154534285Y-61485714D01*
X154486666Y-61580952D01*
X154439047Y-61628571D01*
X154343809Y-61676190D01*
X153962857Y-61676190D01*
X155486666Y-62152380D02*
X154915238Y-62152380D01*
X155200952Y-62152380D02*
X155200952Y-61152380D01*
X155105714Y-61295238D01*
X155010476Y-61390476D01*
X154915238Y-61438095D01*
%TO.C,R1*%
X143560833Y-73562380D02*
X143227500Y-73086190D01*
X142989404Y-73562380D02*
X142989404Y-72562380D01*
X143370357Y-72562380D01*
X143465595Y-72610000D01*
X143513214Y-72657619D01*
X143560833Y-72752857D01*
X143560833Y-72895714D01*
X143513214Y-72990952D01*
X143465595Y-73038571D01*
X143370357Y-73086190D01*
X142989404Y-73086190D01*
X144513214Y-73562380D02*
X143941785Y-73562380D01*
X144227500Y-73562380D02*
X144227500Y-72562380D01*
X144132261Y-72705238D01*
X144037023Y-72800476D01*
X143941785Y-72848095D01*
%TO.C,J1*%
X144446666Y-44112380D02*
X144446666Y-44826666D01*
X144399047Y-44969523D01*
X144303809Y-45064761D01*
X144160952Y-45112380D01*
X144065714Y-45112380D01*
X145446666Y-45112380D02*
X144875238Y-45112380D01*
X145160952Y-45112380D02*
X145160952Y-44112380D01*
X145065714Y-44255238D01*
X144970476Y-44350476D01*
X144875238Y-44398095D01*
%TO.C,D12*%
X161563214Y-58322380D02*
X161563214Y-57322380D01*
X161801309Y-57322380D01*
X161944166Y-57370000D01*
X162039404Y-57465238D01*
X162087023Y-57560476D01*
X162134642Y-57750952D01*
X162134642Y-57893809D01*
X162087023Y-58084285D01*
X162039404Y-58179523D01*
X161944166Y-58274761D01*
X161801309Y-58322380D01*
X161563214Y-58322380D01*
X163087023Y-58322380D02*
X162515595Y-58322380D01*
X162801309Y-58322380D02*
X162801309Y-57322380D01*
X162706071Y-57465238D01*
X162610833Y-57560476D01*
X162515595Y-57608095D01*
X163467976Y-57417619D02*
X163515595Y-57370000D01*
X163610833Y-57322380D01*
X163848928Y-57322380D01*
X163944166Y-57370000D01*
X163991785Y-57417619D01*
X164039404Y-57512857D01*
X164039404Y-57608095D01*
X163991785Y-57750952D01*
X163420357Y-58322380D01*
X164039404Y-58322380D01*
%TO.C,D11*%
X161563214Y-78642380D02*
X161563214Y-77642380D01*
X161801309Y-77642380D01*
X161944166Y-77690000D01*
X162039404Y-77785238D01*
X162087023Y-77880476D01*
X162134642Y-78070952D01*
X162134642Y-78213809D01*
X162087023Y-78404285D01*
X162039404Y-78499523D01*
X161944166Y-78594761D01*
X161801309Y-78642380D01*
X161563214Y-78642380D01*
X163087023Y-78642380D02*
X162515595Y-78642380D01*
X162801309Y-78642380D02*
X162801309Y-77642380D01*
X162706071Y-77785238D01*
X162610833Y-77880476D01*
X162515595Y-77928095D01*
X164039404Y-78642380D02*
X163467976Y-78642380D01*
X163753690Y-78642380D02*
X163753690Y-77642380D01*
X163658452Y-77785238D01*
X163563214Y-77880476D01*
X163467976Y-77928095D01*
%TO.C,D10*%
X143783214Y-87532380D02*
X143783214Y-86532380D01*
X144021309Y-86532380D01*
X144164166Y-86580000D01*
X144259404Y-86675238D01*
X144307023Y-86770476D01*
X144354642Y-86960952D01*
X144354642Y-87103809D01*
X144307023Y-87294285D01*
X144259404Y-87389523D01*
X144164166Y-87484761D01*
X144021309Y-87532380D01*
X143783214Y-87532380D01*
X145307023Y-87532380D02*
X144735595Y-87532380D01*
X145021309Y-87532380D02*
X145021309Y-86532380D01*
X144926071Y-86675238D01*
X144830833Y-86770476D01*
X144735595Y-86818095D01*
X145926071Y-86532380D02*
X146021309Y-86532380D01*
X146116547Y-86580000D01*
X146164166Y-86627619D01*
X146211785Y-86722857D01*
X146259404Y-86913333D01*
X146259404Y-87151428D01*
X146211785Y-87341904D01*
X146164166Y-87437142D01*
X146116547Y-87484761D01*
X146021309Y-87532380D01*
X145926071Y-87532380D01*
X145830833Y-87484761D01*
X145783214Y-87437142D01*
X145735595Y-87341904D01*
X145687976Y-87151428D01*
X145687976Y-86913333D01*
X145735595Y-86722857D01*
X145783214Y-86627619D01*
X145830833Y-86580000D01*
X145926071Y-86532380D01*
%TO.C,D9*%
X127749404Y-78642380D02*
X127749404Y-77642380D01*
X127987500Y-77642380D01*
X128130357Y-77690000D01*
X128225595Y-77785238D01*
X128273214Y-77880476D01*
X128320833Y-78070952D01*
X128320833Y-78213809D01*
X128273214Y-78404285D01*
X128225595Y-78499523D01*
X128130357Y-78594761D01*
X127987500Y-78642380D01*
X127749404Y-78642380D01*
X128797023Y-78642380D02*
X128987500Y-78642380D01*
X129082738Y-78594761D01*
X129130357Y-78547142D01*
X129225595Y-78404285D01*
X129273214Y-78213809D01*
X129273214Y-77832857D01*
X129225595Y-77737619D01*
X129177976Y-77690000D01*
X129082738Y-77642380D01*
X128892261Y-77642380D01*
X128797023Y-77690000D01*
X128749404Y-77737619D01*
X128701785Y-77832857D01*
X128701785Y-78070952D01*
X128749404Y-78166190D01*
X128797023Y-78213809D01*
X128892261Y-78261428D01*
X129082738Y-78261428D01*
X129177976Y-78213809D01*
X129225595Y-78166190D01*
X129273214Y-78070952D01*
%TO.C,D8*%
X144041904Y-96422380D02*
X144041904Y-95422380D01*
X144280000Y-95422380D01*
X144422857Y-95470000D01*
X144518095Y-95565238D01*
X144565714Y-95660476D01*
X144613333Y-95850952D01*
X144613333Y-95993809D01*
X144565714Y-96184285D01*
X144518095Y-96279523D01*
X144422857Y-96374761D01*
X144280000Y-96422380D01*
X144041904Y-96422380D01*
X145184761Y-95850952D02*
X145089523Y-95803333D01*
X145041904Y-95755714D01*
X144994285Y-95660476D01*
X144994285Y-95612857D01*
X145041904Y-95517619D01*
X145089523Y-95470000D01*
X145184761Y-95422380D01*
X145375238Y-95422380D01*
X145470476Y-95470000D01*
X145518095Y-95517619D01*
X145565714Y-95612857D01*
X145565714Y-95660476D01*
X145518095Y-95755714D01*
X145470476Y-95803333D01*
X145375238Y-95850952D01*
X145184761Y-95850952D01*
X145089523Y-95898571D01*
X145041904Y-95946190D01*
X144994285Y-96041428D01*
X144994285Y-96231904D01*
X145041904Y-96327142D01*
X145089523Y-96374761D01*
X145184761Y-96422380D01*
X145375238Y-96422380D01*
X145470476Y-96374761D01*
X145518095Y-96327142D01*
X145565714Y-96231904D01*
X145565714Y-96041428D01*
X145518095Y-95946190D01*
X145470476Y-95898571D01*
X145375238Y-95850952D01*
%TO.C,D7*%
X144259404Y-31652380D02*
X144259404Y-30652380D01*
X144497500Y-30652380D01*
X144640357Y-30700000D01*
X144735595Y-30795238D01*
X144783214Y-30890476D01*
X144830833Y-31080952D01*
X144830833Y-31223809D01*
X144783214Y-31414285D01*
X144735595Y-31509523D01*
X144640357Y-31604761D01*
X144497500Y-31652380D01*
X144259404Y-31652380D01*
X145164166Y-30652380D02*
X145830833Y-30652380D01*
X145402261Y-31652380D01*
%TO.C,D6*%
X127749404Y-58322380D02*
X127749404Y-57322380D01*
X127987500Y-57322380D01*
X128130357Y-57370000D01*
X128225595Y-57465238D01*
X128273214Y-57560476D01*
X128320833Y-57750952D01*
X128320833Y-57893809D01*
X128273214Y-58084285D01*
X128225595Y-58179523D01*
X128130357Y-58274761D01*
X127987500Y-58322380D01*
X127749404Y-58322380D01*
X129177976Y-57322380D02*
X128987500Y-57322380D01*
X128892261Y-57370000D01*
X128844642Y-57417619D01*
X128749404Y-57560476D01*
X128701785Y-57750952D01*
X128701785Y-58131904D01*
X128749404Y-58227142D01*
X128797023Y-58274761D01*
X128892261Y-58322380D01*
X129082738Y-58322380D01*
X129177976Y-58274761D01*
X129225595Y-58227142D01*
X129273214Y-58131904D01*
X129273214Y-57893809D01*
X129225595Y-57798571D01*
X129177976Y-57750952D01*
X129082738Y-57703333D01*
X128892261Y-57703333D01*
X128797023Y-57750952D01*
X128749404Y-57798571D01*
X128701785Y-57893809D01*
%TO.C,D5*%
X120129404Y-54512380D02*
X120129404Y-53512380D01*
X120367500Y-53512380D01*
X120510357Y-53560000D01*
X120605595Y-53655238D01*
X120653214Y-53750476D01*
X120700833Y-53940952D01*
X120700833Y-54083809D01*
X120653214Y-54274285D01*
X120605595Y-54369523D01*
X120510357Y-54464761D01*
X120367500Y-54512380D01*
X120129404Y-54512380D01*
X121605595Y-53512380D02*
X121129404Y-53512380D01*
X121081785Y-53988571D01*
X121129404Y-53940952D01*
X121224642Y-53893333D01*
X121462738Y-53893333D01*
X121557976Y-53940952D01*
X121605595Y-53988571D01*
X121653214Y-54083809D01*
X121653214Y-54321904D01*
X121605595Y-54417142D01*
X121557976Y-54464761D01*
X121462738Y-54512380D01*
X121224642Y-54512380D01*
X121129404Y-54464761D01*
X121081785Y-54417142D01*
%TO.C,D4*%
X144041904Y-39272380D02*
X144041904Y-38272380D01*
X144280000Y-38272380D01*
X144422857Y-38320000D01*
X144518095Y-38415238D01*
X144565714Y-38510476D01*
X144613333Y-38700952D01*
X144613333Y-38843809D01*
X144565714Y-39034285D01*
X144518095Y-39129523D01*
X144422857Y-39224761D01*
X144280000Y-39272380D01*
X144041904Y-39272380D01*
X145470476Y-38605714D02*
X145470476Y-39272380D01*
X145232380Y-38224761D02*
X144994285Y-38939047D01*
X145613333Y-38939047D01*
%TO.C,D3*%
X120129404Y-82452380D02*
X120129404Y-81452380D01*
X120367500Y-81452380D01*
X120510357Y-81500000D01*
X120605595Y-81595238D01*
X120653214Y-81690476D01*
X120700833Y-81880952D01*
X120700833Y-82023809D01*
X120653214Y-82214285D01*
X120605595Y-82309523D01*
X120510357Y-82404761D01*
X120367500Y-82452380D01*
X120129404Y-82452380D01*
X121034166Y-81452380D02*
X121653214Y-81452380D01*
X121319880Y-81833333D01*
X121462738Y-81833333D01*
X121557976Y-81880952D01*
X121605595Y-81928571D01*
X121653214Y-82023809D01*
X121653214Y-82261904D01*
X121605595Y-82357142D01*
X121557976Y-82404761D01*
X121462738Y-82452380D01*
X121177023Y-82452380D01*
X121081785Y-82404761D01*
X121034166Y-82357142D01*
%TO.C,D2*%
X167119404Y-54512380D02*
X167119404Y-53512380D01*
X167357500Y-53512380D01*
X167500357Y-53560000D01*
X167595595Y-53655238D01*
X167643214Y-53750476D01*
X167690833Y-53940952D01*
X167690833Y-54083809D01*
X167643214Y-54274285D01*
X167595595Y-54369523D01*
X167500357Y-54464761D01*
X167357500Y-54512380D01*
X167119404Y-54512380D01*
X168071785Y-53607619D02*
X168119404Y-53560000D01*
X168214642Y-53512380D01*
X168452738Y-53512380D01*
X168547976Y-53560000D01*
X168595595Y-53607619D01*
X168643214Y-53702857D01*
X168643214Y-53798095D01*
X168595595Y-53940952D01*
X168024166Y-54512380D01*
X168643214Y-54512380D01*
%TO.C,D1*%
X167119404Y-82452380D02*
X167119404Y-81452380D01*
X167357500Y-81452380D01*
X167500357Y-81500000D01*
X167595595Y-81595238D01*
X167643214Y-81690476D01*
X167690833Y-81880952D01*
X167690833Y-82023809D01*
X167643214Y-82214285D01*
X167595595Y-82309523D01*
X167500357Y-82404761D01*
X167357500Y-82452380D01*
X167119404Y-82452380D01*
X168643214Y-82452380D02*
X168071785Y-82452380D01*
X168357500Y-82452380D02*
X168357500Y-81452380D01*
X168262261Y-81595238D01*
X168167023Y-81690476D01*
X168071785Y-81738095D01*
%TD*%
M02*
