%TF.GenerationSoftware,KiCad,Pcbnew,5.1.6-c6e7f7d~87~ubuntu19.10.1*%
%TF.CreationDate,2021-11-13T16:17:34-08:00*%
%TF.ProjectId,snowflake2021,736e6f77-666c-4616-9b65-323032312e6b,rev?*%
%TF.SameCoordinates,Original*%
%TF.FileFunction,Soldermask,Top*%
%TF.FilePolarity,Negative*%
%FSLAX46Y46*%
G04 Gerber Fmt 4.6, Leading zero omitted, Abs format (unit mm)*
G04 Created by KiCad (PCBNEW 5.1.6-c6e7f7d~87~ubuntu19.10.1) date 2021-11-13 16:17:34*
%MOMM*%
%LPD*%
G01*
G04 APERTURE LIST*
%ADD10C,2.200000*%
%ADD11R,2.200000X2.200000*%
%ADD12R,1.400000X1.650000*%
%ADD13R,1.800000X0.750000*%
%ADD14O,1.800000X1.800000*%
%ADD15R,1.800000X1.800000*%
G04 APERTURE END LIST*
D10*
%TO.C,BT1*%
X152080000Y-69850000D03*
D11*
X132080000Y-69850000D03*
%TD*%
D12*
%TO.C,SW1*%
X147157000Y-65875000D03*
X142657000Y-65875000D03*
X142657000Y-73825000D03*
X147157000Y-73825000D03*
%TD*%
%TO.C,R4*%
G36*
G01*
X154962456Y-68834500D02*
X153647544Y-68834500D01*
G75*
G02*
X153380000Y-68566956I0J267544D01*
G01*
X153380000Y-67577044D01*
G75*
G02*
X153647544Y-67309500I267544J0D01*
G01*
X154962456Y-67309500D01*
G75*
G02*
X155230000Y-67577044I0J-267544D01*
G01*
X155230000Y-68566956D01*
G75*
G02*
X154962456Y-68834500I-267544J0D01*
G01*
G37*
G36*
G01*
X154962456Y-71809500D02*
X153647544Y-71809500D01*
G75*
G02*
X153380000Y-71541956I0J267544D01*
G01*
X153380000Y-70552044D01*
G75*
G02*
X153647544Y-70284500I267544J0D01*
G01*
X154962456Y-70284500D01*
G75*
G02*
X155230000Y-70552044I0J-267544D01*
G01*
X155230000Y-71541956D01*
G75*
G02*
X154962456Y-71809500I-267544J0D01*
G01*
G37*
%TD*%
%TO.C,R3*%
G36*
G01*
X142598544Y-79465000D02*
X143913456Y-79465000D01*
G75*
G02*
X144181000Y-79732544I0J-267544D01*
G01*
X144181000Y-80722456D01*
G75*
G02*
X143913456Y-80990000I-267544J0D01*
G01*
X142598544Y-80990000D01*
G75*
G02*
X142331000Y-80722456I0J267544D01*
G01*
X142331000Y-79732544D01*
G75*
G02*
X142598544Y-79465000I267544J0D01*
G01*
G37*
G36*
G01*
X142598544Y-76490000D02*
X143913456Y-76490000D01*
G75*
G02*
X144181000Y-76757544I0J-267544D01*
G01*
X144181000Y-77747456D01*
G75*
G02*
X143913456Y-78015000I-267544J0D01*
G01*
X142598544Y-78015000D01*
G75*
G02*
X142331000Y-77747456I0J267544D01*
G01*
X142331000Y-76757544D01*
G75*
G02*
X142598544Y-76490000I267544J0D01*
G01*
G37*
%TD*%
%TO.C,R2*%
G36*
G01*
X146961456Y-78015000D02*
X145646544Y-78015000D01*
G75*
G02*
X145379000Y-77747456I0J267544D01*
G01*
X145379000Y-76757544D01*
G75*
G02*
X145646544Y-76490000I267544J0D01*
G01*
X146961456Y-76490000D01*
G75*
G02*
X147229000Y-76757544I0J-267544D01*
G01*
X147229000Y-77747456D01*
G75*
G02*
X146961456Y-78015000I-267544J0D01*
G01*
G37*
G36*
G01*
X146961456Y-80990000D02*
X145646544Y-80990000D01*
G75*
G02*
X145379000Y-80722456I0J267544D01*
G01*
X145379000Y-79732544D01*
G75*
G02*
X145646544Y-79465000I267544J0D01*
G01*
X146961456Y-79465000D01*
G75*
G02*
X147229000Y-79732544I0J-267544D01*
G01*
X147229000Y-80722456D01*
G75*
G02*
X146961456Y-80990000I-267544J0D01*
G01*
G37*
%TD*%
%TO.C,R1*%
G36*
G01*
X157502456Y-68907500D02*
X156187544Y-68907500D01*
G75*
G02*
X155920000Y-68639956I0J267544D01*
G01*
X155920000Y-67650044D01*
G75*
G02*
X156187544Y-67382500I267544J0D01*
G01*
X157502456Y-67382500D01*
G75*
G02*
X157770000Y-67650044I0J-267544D01*
G01*
X157770000Y-68639956D01*
G75*
G02*
X157502456Y-68907500I-267544J0D01*
G01*
G37*
G36*
G01*
X157502456Y-71882500D02*
X156187544Y-71882500D01*
G75*
G02*
X155920000Y-71614956I0J267544D01*
G01*
X155920000Y-70625044D01*
G75*
G02*
X156187544Y-70357500I267544J0D01*
G01*
X157502456Y-70357500D01*
G75*
G02*
X157770000Y-70625044I0J-267544D01*
G01*
X157770000Y-71614956D01*
G75*
G02*
X157502456Y-71882500I-267544J0D01*
G01*
G37*
%TD*%
%TO.C,D6*%
G36*
G01*
X116638832Y-53088671D02*
X116184168Y-52826171D01*
G75*
G02*
X116088086Y-52467589I131250J227332D01*
G01*
X116400586Y-51926323D01*
G75*
G02*
X116759168Y-51830241I227332J-131250D01*
G01*
X117213832Y-52092741D01*
G75*
G02*
X117309914Y-52451323I-131250J-227332D01*
G01*
X116997414Y-52992589D01*
G75*
G02*
X116638832Y-53088671I-227332J131250D01*
G01*
G37*
G36*
G01*
X115763832Y-54604215D02*
X115309168Y-54341715D01*
G75*
G02*
X115213086Y-53983133I131250J227332D01*
G01*
X115525586Y-53441867D01*
G75*
G02*
X115884168Y-53345785I227332J-131250D01*
G01*
X116338832Y-53608285D01*
G75*
G02*
X116434914Y-53966867I-131250J-227332D01*
G01*
X116122414Y-54508133D01*
G75*
G02*
X115763832Y-54604215I-227332J131250D01*
G01*
G37*
%TD*%
%TO.C,D5*%
G36*
G01*
X116395332Y-85968943D02*
X115940668Y-86231443D01*
G75*
G02*
X115582086Y-86135361I-131250J227332D01*
G01*
X115269586Y-85594095D01*
G75*
G02*
X115365668Y-85235513I227332J131250D01*
G01*
X115820332Y-84973013D01*
G75*
G02*
X116178914Y-85069095I131250J-227332D01*
G01*
X116491414Y-85610361D01*
G75*
G02*
X116395332Y-85968943I-227332J-131250D01*
G01*
G37*
G36*
G01*
X117270332Y-87484487D02*
X116815668Y-87746987D01*
G75*
G02*
X116457086Y-87650905I-131250J227332D01*
G01*
X116144586Y-87109639D01*
G75*
G02*
X116240668Y-86751057I227332J131250D01*
G01*
X116695332Y-86488557D01*
G75*
G02*
X117053914Y-86584639I131250J-227332D01*
G01*
X117366414Y-87125905D01*
G75*
G02*
X117270332Y-87484487I-227332J-131250D01*
G01*
G37*
%TD*%
%TO.C,D4*%
G36*
G01*
X144607000Y-102607500D02*
X144607000Y-103132500D01*
G75*
G02*
X144344500Y-103395000I-262500J0D01*
G01*
X143719500Y-103395000D01*
G75*
G02*
X143457000Y-103132500I0J262500D01*
G01*
X143457000Y-102607500D01*
G75*
G02*
X143719500Y-102345000I262500J0D01*
G01*
X144344500Y-102345000D01*
G75*
G02*
X144607000Y-102607500I0J-262500D01*
G01*
G37*
G36*
G01*
X146357000Y-102607500D02*
X146357000Y-103132500D01*
G75*
G02*
X146094500Y-103395000I-262500J0D01*
G01*
X145469500Y-103395000D01*
G75*
G02*
X145207000Y-103132500I0J262500D01*
G01*
X145207000Y-102607500D01*
G75*
G02*
X145469500Y-102345000I262500J0D01*
G01*
X146094500Y-102345000D01*
G75*
G02*
X146357000Y-102607500I0J-262500D01*
G01*
G37*
%TD*%
%TO.C,D3*%
G36*
G01*
X173231668Y-86488557D02*
X173686332Y-86751057D01*
G75*
G02*
X173782414Y-87109639I-131250J-227332D01*
G01*
X173469914Y-87650905D01*
G75*
G02*
X173111332Y-87746987I-227332J131250D01*
G01*
X172656668Y-87484487D01*
G75*
G02*
X172560586Y-87125905I131250J227332D01*
G01*
X172873086Y-86584639D01*
G75*
G02*
X173231668Y-86488557I227332J-131250D01*
G01*
G37*
G36*
G01*
X174106668Y-84973013D02*
X174561332Y-85235513D01*
G75*
G02*
X174657414Y-85594095I-131250J-227332D01*
G01*
X174344914Y-86135361D01*
G75*
G02*
X173986332Y-86231443I-227332J131250D01*
G01*
X173531668Y-85968943D01*
G75*
G02*
X173435586Y-85610361I131250J227332D01*
G01*
X173748086Y-85069095D01*
G75*
G02*
X174106668Y-84973013I227332J-131250D01*
G01*
G37*
%TD*%
%TO.C,D2*%
G36*
G01*
X173418668Y-53858057D02*
X173873332Y-53595557D01*
G75*
G02*
X174231914Y-53691639I131250J-227332D01*
G01*
X174544414Y-54232905D01*
G75*
G02*
X174448332Y-54591487I-227332J-131250D01*
G01*
X173993668Y-54853987D01*
G75*
G02*
X173635086Y-54757905I-131250J227332D01*
G01*
X173322586Y-54216639D01*
G75*
G02*
X173418668Y-53858057I227332J131250D01*
G01*
G37*
G36*
G01*
X172543668Y-52342513D02*
X172998332Y-52080013D01*
G75*
G02*
X173356914Y-52176095I131250J-227332D01*
G01*
X173669414Y-52717361D01*
G75*
G02*
X173573332Y-53075943I-227332J-131250D01*
G01*
X173118668Y-53338443D01*
G75*
G02*
X172760086Y-53242361I-131250J227332D01*
G01*
X172447586Y-52701095D01*
G75*
G02*
X172543668Y-52342513I227332J131250D01*
G01*
G37*
%TD*%
%TO.C,D1*%
G36*
G01*
X145193000Y-37092500D02*
X145193000Y-36567500D01*
G75*
G02*
X145455500Y-36305000I262500J0D01*
G01*
X146080500Y-36305000D01*
G75*
G02*
X146343000Y-36567500I0J-262500D01*
G01*
X146343000Y-37092500D01*
G75*
G02*
X146080500Y-37355000I-262500J0D01*
G01*
X145455500Y-37355000D01*
G75*
G02*
X145193000Y-37092500I0J262500D01*
G01*
G37*
G36*
G01*
X143443000Y-37092500D02*
X143443000Y-36567500D01*
G75*
G02*
X143705500Y-36305000I262500J0D01*
G01*
X144330500Y-36305000D01*
G75*
G02*
X144593000Y-36567500I0J-262500D01*
G01*
X144593000Y-37092500D01*
G75*
G02*
X144330500Y-37355000I-262500J0D01*
G01*
X143705500Y-37355000D01*
G75*
G02*
X143443000Y-37092500I0J262500D01*
G01*
G37*
%TD*%
%TO.C,C1*%
G36*
G01*
X135785456Y-69125000D02*
X134470544Y-69125000D01*
G75*
G02*
X134203000Y-68857456I0J267544D01*
G01*
X134203000Y-67867544D01*
G75*
G02*
X134470544Y-67600000I267544J0D01*
G01*
X135785456Y-67600000D01*
G75*
G02*
X136053000Y-67867544I0J-267544D01*
G01*
X136053000Y-68857456D01*
G75*
G02*
X135785456Y-69125000I-267544J0D01*
G01*
G37*
G36*
G01*
X135785456Y-72100000D02*
X134470544Y-72100000D01*
G75*
G02*
X134203000Y-71832456I0J267544D01*
G01*
X134203000Y-70842544D01*
G75*
G02*
X134470544Y-70575000I267544J0D01*
G01*
X135785456Y-70575000D01*
G75*
G02*
X136053000Y-70842544I0J-267544D01*
G01*
X136053000Y-71832456D01*
G75*
G02*
X135785456Y-72100000I-267544J0D01*
G01*
G37*
%TD*%
D13*
%TO.C,U1*%
X141257000Y-58547000D03*
X141257000Y-59817000D03*
X141257000Y-61087000D03*
X141257000Y-62357000D03*
X148557000Y-62357000D03*
X148557000Y-61087000D03*
X148557000Y-59817000D03*
X148557000Y-58547000D03*
%TD*%
%TO.C,R5*%
G36*
G01*
X138325456Y-69088500D02*
X137010544Y-69088500D01*
G75*
G02*
X136743000Y-68820956I0J267544D01*
G01*
X136743000Y-67831044D01*
G75*
G02*
X137010544Y-67563500I267544J0D01*
G01*
X138325456Y-67563500D01*
G75*
G02*
X138593000Y-67831044I0J-267544D01*
G01*
X138593000Y-68820956D01*
G75*
G02*
X138325456Y-69088500I-267544J0D01*
G01*
G37*
G36*
G01*
X138325456Y-72063500D02*
X137010544Y-72063500D01*
G75*
G02*
X136743000Y-71795956I0J267544D01*
G01*
X136743000Y-70806044D01*
G75*
G02*
X137010544Y-70538500I267544J0D01*
G01*
X138325456Y-70538500D01*
G75*
G02*
X138593000Y-70806044I0J-267544D01*
G01*
X138593000Y-71795956D01*
G75*
G02*
X138325456Y-72063500I-267544J0D01*
G01*
G37*
%TD*%
D14*
%TO.C,J1*%
X146304000Y-91440000D03*
X143764000Y-91440000D03*
X146304000Y-88900000D03*
X143764000Y-88900000D03*
X146304000Y-86360000D03*
D15*
X143764000Y-86360000D03*
%TD*%
M02*
